<svg xmlns="http://www.w3.org/2000/svg" height="800" width="1200" viewBox="-21.25983 -20.19 184.25186 121.14"><g fill="#3771c8"><path d="M108.3197 10.8996H94.166l-9.6079 14.5406V0h-10.897v45.9569h10.897V29.659l11.1892 16.2979h14.1212L94.3335 27.592l13.9863-16.6925M48.5605 24.449c.2861-2.9395 2.149-7.0981 6.7393-7.0981 5.017 0 6.164 4.4433 6.164 7.0981zm7.3853-14.3394c-12.1904 0-17.71 9.8233-17.71 18.7105 0 10.9688 6.813 17.8501 18.712 17.8501 4.7294 0 9.105-.713 12.6888-2.149l-1.4335-7.3818c-2.941.9292-5.9531 1.4321-9.6782 1.4321-5.0904 0-9.5352-2.1499-9.8917-6.6674H71.214c.143-.7876.3594-2.4385.3594-4.3017 0-8.6754-4.3033-17.4928-15.6276-17.4928M18.4233 38.9309c-4.3467 0-6.8213-3.9317-7.1343-9.3505v-2.3335c.274-4.7808 2.2886-9.3945 7.1343-9.3945 4.9477 0 6.9536 5.3051 6.9536 10.5366 0 6.3095-2.7241 10.5419-6.9536 10.5419zm.2862-28.8213c-2.713 0-5.1987.4303-7.4205 1.23V0H.0005v29.6184c.4326 10.75 8.1772 17.1255 18.1381 17.1255 9.3901 0 18.4941-5.8794 18.4941-18.7119 0-10.5371-7.168-17.9224-17.9232-17.9224"/><path d="M123.5235 38.9309c-4.6612 0-7.1687-4.516-7.1687-10.5419 0-5.1602 1.9337-10.5366 7.1687-10.5366 4.945 0 6.9525 5.3051 6.9525 10.5366 0 6.3095-2.725 10.5419-6.9525 10.5419zm.2863-28.8213c-11.255 0-18.71 7.2413-18.71 18.5684 0 11.3261 7.8824 18.0659 18.1362 18.0659 9.39 0 18.4962-5.8794 18.4962-18.7119 0-10.5371-7.17-17.9224-17.9225-17.9224M0 69.7571V80.76l137.726-19.3559v-11.002L0 69.7571"/></g></svg>